<mxfile host="Electron" agent="Mozilla/5.0 (Windows NT 10.0; Win64; x64) AppleWebKit/537.36 (KHTML, like Gecko) draw.io/26.2.2 Chrome/134.0.6998.178 Electron/35.1.2 Safari/537.36" version="26.2.2">
  <diagram name="Page-1" id="tYa4u90ebvO0XL8zGm4H">
    <mxGraphModel dx="178" dy="513" grid="1" gridSize="16" guides="1" tooltips="1" connect="1" arrows="1" fold="1" page="1" pageScale="1" pageWidth="850" pageHeight="1100" math="0" shadow="0">
      <root>
        <mxCell id="0" />
        <mxCell id="1" parent="0" />
        <mxCell id="YODVxTOYy-qkGwiDJhw3-1" value="crm_cust_info" style="swimlane;fontStyle=0;childLayout=stackLayout;horizontal=1;startSize=30;horizontalStack=0;resizeParent=1;resizeParentMax=0;resizeLast=0;collapsible=1;marginBottom=0;whiteSpace=wrap;html=1;fillColor=#dae8fc;strokeColor=#6c8ebf;rounded=1;fontSize=14;" parent="1" vertex="1">
          <mxGeometry x="233" y="304" width="158" height="90" as="geometry" />
        </mxCell>
        <mxCell id="YODVxTOYy-qkGwiDJhw3-26" value="cst_key" style="text;strokeColor=none;fillColor=none;align=left;verticalAlign=middle;spacingLeft=4;spacingRight=4;overflow=hidden;points=[[0,0.5],[1,0.5]];portConstraint=eastwest;rotatable=0;whiteSpace=wrap;html=1;fontSize=21;" parent="YODVxTOYy-qkGwiDJhw3-1" vertex="1">
          <mxGeometry y="30" width="158" height="30" as="geometry" />
        </mxCell>
        <mxCell id="YODVxTOYy-qkGwiDJhw3-2" value="cst_id" style="text;strokeColor=none;fillColor=none;align=left;verticalAlign=middle;spacingLeft=4;spacingRight=4;overflow=hidden;points=[[0,0.5],[1,0.5]];portConstraint=eastwest;rotatable=0;whiteSpace=wrap;html=1;fontSize=21;" parent="YODVxTOYy-qkGwiDJhw3-1" vertex="1">
          <mxGeometry y="60" width="158" height="30" as="geometry" />
        </mxCell>
        <mxCell id="YODVxTOYy-qkGwiDJhw3-6" value="customer information" style="rounded=0;whiteSpace=wrap;html=1;dashed=1;fillColor=none;strokeColor=none;" parent="1" vertex="1">
          <mxGeometry x="220" y="272" width="176" height="32" as="geometry" />
        </mxCell>
        <mxCell id="YODVxTOYy-qkGwiDJhw3-7" value="crm_sales_details" style="swimlane;fontStyle=0;childLayout=stackLayout;horizontal=1;startSize=30;horizontalStack=0;resizeParent=1;resizeParentMax=0;resizeLast=0;collapsible=1;marginBottom=0;whiteSpace=wrap;html=1;fillColor=#dae8fc;strokeColor=#6c8ebf;rounded=1;fontSize=14;" parent="1" vertex="1">
          <mxGeometry x="27" y="208" width="154" height="130" as="geometry" />
        </mxCell>
        <mxCell id="YODVxTOYy-qkGwiDJhw3-16" value="prd_key" style="text;strokeColor=none;fillColor=none;align=left;verticalAlign=middle;spacingLeft=4;spacingRight=4;overflow=hidden;points=[[0,0.5],[1,0.5]];portConstraint=eastwest;rotatable=0;whiteSpace=wrap;html=1;fontSize=21;" parent="YODVxTOYy-qkGwiDJhw3-7" vertex="1">
          <mxGeometry y="30" width="154" height="50" as="geometry" />
        </mxCell>
        <mxCell id="YODVxTOYy-qkGwiDJhw3-14" value="cst_id" style="text;strokeColor=none;fillColor=none;align=left;verticalAlign=middle;spacingLeft=4;spacingRight=4;overflow=hidden;points=[[0,0.5],[1,0.5]];portConstraint=eastwest;rotatable=0;whiteSpace=wrap;html=1;fontSize=21;" parent="YODVxTOYy-qkGwiDJhw3-7" vertex="1">
          <mxGeometry y="80" width="154" height="50" as="geometry" />
        </mxCell>
        <mxCell id="YODVxTOYy-qkGwiDJhw3-8" value="transactional recoresfor Sales &amp;amp; Orders" style="rounded=0;whiteSpace=wrap;html=1;dashed=1;fillColor=none;strokeColor=none;" parent="1" vertex="1">
          <mxGeometry x="16" y="176" width="176" height="32" as="geometry" />
        </mxCell>
        <mxCell id="YODVxTOYy-qkGwiDJhw3-10" value="crm_prd_info" style="swimlane;fontStyle=0;childLayout=stackLayout;horizontal=1;startSize=30;horizontalStack=0;resizeParent=1;resizeParentMax=0;resizeLast=0;collapsible=1;marginBottom=0;whiteSpace=wrap;html=1;fillColor=#dae8fc;strokeColor=#6c8ebf;rounded=1;fontSize=14;" parent="1" vertex="1">
          <mxGeometry x="242" y="130" width="154" height="78" as="geometry" />
        </mxCell>
        <mxCell id="YODVxTOYy-qkGwiDJhw3-11" value="product current &amp;amp; history info" style="rounded=0;whiteSpace=wrap;html=1;dashed=1;fillColor=none;strokeColor=none;" parent="1" vertex="1">
          <mxGeometry x="224" y="98" width="176" height="32" as="geometry" />
        </mxCell>
        <mxCell id="YODVxTOYy-qkGwiDJhw3-12" value="prd_key" style="text;strokeColor=none;fillColor=none;align=left;verticalAlign=middle;spacingLeft=4;spacingRight=4;overflow=hidden;points=[[0,0.5],[1,0.5]];portConstraint=eastwest;rotatable=0;whiteSpace=wrap;html=1;fontSize=21;" parent="1" vertex="1">
          <mxGeometry x="242" y="160" width="140" height="30" as="geometry" />
        </mxCell>
        <mxCell id="YODVxTOYy-qkGwiDJhw3-18" style="edgeStyle=orthogonalEdgeStyle;rounded=0;orthogonalLoop=1;jettySize=auto;html=1;" parent="1" source="YODVxTOYy-qkGwiDJhw3-16" target="YODVxTOYy-qkGwiDJhw3-12" edge="1">
          <mxGeometry relative="1" as="geometry" />
        </mxCell>
        <mxCell id="YODVxTOYy-qkGwiDJhw3-20" style="edgeStyle=orthogonalEdgeStyle;rounded=0;orthogonalLoop=1;jettySize=auto;html=1;entryX=0;entryY=0.5;entryDx=0;entryDy=0;" parent="1" source="YODVxTOYy-qkGwiDJhw3-14" target="YODVxTOYy-qkGwiDJhw3-2" edge="1">
          <mxGeometry relative="1" as="geometry" />
        </mxCell>
        <mxCell id="YODVxTOYy-qkGwiDJhw3-21" value="erp_cust_az12" style="swimlane;fontStyle=0;childLayout=stackLayout;horizontal=1;startSize=30;horizontalStack=0;resizeParent=1;resizeParentMax=0;resizeLast=0;collapsible=1;marginBottom=0;whiteSpace=wrap;html=1;fillColor=#ffe6cc;strokeColor=#d79b00;rounded=1;fontSize=14;" parent="1" vertex="1">
          <mxGeometry x="610" y="354" width="154" height="78" as="geometry" />
        </mxCell>
        <mxCell id="YODVxTOYy-qkGwiDJhw3-22" value="extra customer Info Birthday" style="rounded=0;whiteSpace=wrap;html=1;dashed=1;fillColor=none;strokeColor=none;" parent="1" vertex="1">
          <mxGeometry x="599" y="322" width="176" height="32" as="geometry" />
        </mxCell>
        <mxCell id="YODVxTOYy-qkGwiDJhw3-36" style="edgeStyle=orthogonalEdgeStyle;rounded=0;orthogonalLoop=1;jettySize=auto;html=1;" parent="1" source="YODVxTOYy-qkGwiDJhw3-23" target="YODVxTOYy-qkGwiDJhw3-26" edge="1">
          <mxGeometry relative="1" as="geometry" />
        </mxCell>
        <mxCell id="YODVxTOYy-qkGwiDJhw3-23" value="cid" style="text;strokeColor=none;fillColor=none;align=left;verticalAlign=middle;spacingLeft=4;spacingRight=4;overflow=hidden;points=[[0,0.5],[1,0.5]];portConstraint=eastwest;rotatable=0;whiteSpace=wrap;html=1;fontSize=21;" parent="1" vertex="1">
          <mxGeometry x="610" y="384" width="140" height="30" as="geometry" />
        </mxCell>
        <mxCell id="YODVxTOYy-qkGwiDJhw3-32" value="erp_loc_a101" style="swimlane;fontStyle=0;childLayout=stackLayout;horizontal=1;startSize=30;horizontalStack=0;resizeParent=1;resizeParentMax=0;resizeLast=0;collapsible=1;marginBottom=0;whiteSpace=wrap;html=1;fillColor=#ffe6cc;strokeColor=#d79b00;rounded=1;fontSize=14;" parent="1" vertex="1">
          <mxGeometry x="603" y="224" width="154" height="78" as="geometry" />
        </mxCell>
        <mxCell id="YODVxTOYy-qkGwiDJhw3-33" value="extra customer Info Country" style="rounded=0;whiteSpace=wrap;html=1;dashed=1;fillColor=none;strokeColor=none;" parent="1" vertex="1">
          <mxGeometry x="592" y="192" width="176" height="32" as="geometry" />
        </mxCell>
        <mxCell id="YODVxTOYy-qkGwiDJhw3-35" style="edgeStyle=orthogonalEdgeStyle;rounded=0;orthogonalLoop=1;jettySize=auto;html=1;entryX=1;entryY=0.5;entryDx=0;entryDy=0;" parent="1" source="YODVxTOYy-qkGwiDJhw3-34" target="YODVxTOYy-qkGwiDJhw3-26" edge="1">
          <mxGeometry relative="1" as="geometry" />
        </mxCell>
        <mxCell id="YODVxTOYy-qkGwiDJhw3-34" value="cid" style="text;strokeColor=none;fillColor=none;align=left;verticalAlign=middle;spacingLeft=4;spacingRight=4;overflow=hidden;points=[[0,0.5],[1,0.5]];portConstraint=eastwest;rotatable=0;whiteSpace=wrap;html=1;fontSize=21;" parent="1" vertex="1">
          <mxGeometry x="603" y="254" width="140" height="30" as="geometry" />
        </mxCell>
        <mxCell id="YODVxTOYy-qkGwiDJhw3-37" value="erp_px_cat_g1v2" style="swimlane;fontStyle=0;childLayout=stackLayout;horizontal=1;startSize=30;horizontalStack=0;resizeParent=1;resizeParentMax=0;resizeLast=0;collapsible=1;marginBottom=0;whiteSpace=wrap;html=1;fillColor=#ffe6cc;strokeColor=#d79b00;rounded=1;fontSize=14;" parent="1" vertex="1">
          <mxGeometry x="610" y="112" width="154" height="78" as="geometry" />
        </mxCell>
        <mxCell id="YODVxTOYy-qkGwiDJhw3-38" value="Product Category Info" style="rounded=0;whiteSpace=wrap;html=1;dashed=1;fillColor=none;strokeColor=none;" parent="1" vertex="1">
          <mxGeometry x="599" y="80" width="176" height="32" as="geometry" />
        </mxCell>
        <mxCell id="YODVxTOYy-qkGwiDJhw3-40" style="edgeStyle=orthogonalEdgeStyle;rounded=0;orthogonalLoop=1;jettySize=auto;html=1;entryX=1;entryY=0.5;entryDx=0;entryDy=0;" parent="1" source="YODVxTOYy-qkGwiDJhw3-39" target="YODVxTOYy-qkGwiDJhw3-10" edge="1">
          <mxGeometry relative="1" as="geometry" />
        </mxCell>
        <mxCell id="YODVxTOYy-qkGwiDJhw3-39" value="id" style="text;strokeColor=none;fillColor=none;align=left;verticalAlign=middle;spacingLeft=4;spacingRight=4;overflow=hidden;points=[[0,0.5],[1,0.5]];portConstraint=eastwest;rotatable=0;whiteSpace=wrap;html=1;fontSize=21;" parent="1" vertex="1">
          <mxGeometry x="610" y="142" width="140" height="30" as="geometry" />
        </mxCell>
        <mxCell id="YODVxTOYy-qkGwiDJhw3-41" value="" style="rounded=1;whiteSpace=wrap;html=1;fillColor=none;dashed=1;" parent="1" vertex="1">
          <mxGeometry x="16" y="64" width="400" height="384" as="geometry" />
        </mxCell>
        <mxCell id="YODVxTOYy-qkGwiDJhw3-42" value="&lt;font style=&quot;font-size: 35px;&quot;&gt;CRM&lt;/font&gt;" style="rounded=1;whiteSpace=wrap;html=1;fillColor=#dae8fc;strokeColor=#6c8ebf;" parent="1" vertex="1">
          <mxGeometry x="160" y="36" width="104" height="44" as="geometry" />
        </mxCell>
        <mxCell id="YODVxTOYy-qkGwiDJhw3-43" value="" style="rounded=1;whiteSpace=wrap;html=1;fillColor=none;dashed=1;" parent="1" vertex="1">
          <mxGeometry x="512" y="64" width="320" height="384" as="geometry" />
        </mxCell>
        <mxCell id="YODVxTOYy-qkGwiDJhw3-44" value="&lt;font style=&quot;font-size: 35px;&quot;&gt;ERP&lt;/font&gt;" style="rounded=1;whiteSpace=wrap;html=1;fillColor=#ffe6cc;strokeColor=#d79b00;" parent="1" vertex="1">
          <mxGeometry x="621" y="36" width="104" height="44" as="geometry" />
        </mxCell>
        <mxCell id="EQNxr8IgMrFvMYXsJS5_-1" value="&lt;font style=&quot;font-size: 14px;&quot;&gt;Products&lt;/font&gt;" style="text;html=1;strokeColor=#b85450;fillColor=#f8cecc;align=center;verticalAlign=middle;whiteSpace=wrap;overflow=hidden;" vertex="1" parent="1">
          <mxGeometry x="248" y="190" width="142" height="20" as="geometry" />
        </mxCell>
        <mxCell id="EQNxr8IgMrFvMYXsJS5_-2" value="&lt;font style=&quot;font-size: 14px;&quot;&gt;Products&lt;/font&gt;" style="text;html=1;strokeColor=#b85450;fillColor=#f8cecc;align=center;verticalAlign=middle;whiteSpace=wrap;overflow=hidden;" vertex="1" parent="1">
          <mxGeometry x="606" y="172" width="162" height="20" as="geometry" />
        </mxCell>
        <mxCell id="EQNxr8IgMrFvMYXsJS5_-3" value="&lt;font style=&quot;font-size: 14px;&quot;&gt;Customer&lt;/font&gt;" style="text;html=1;strokeColor=#2D7600;fillColor=#60a917;align=center;verticalAlign=middle;whiteSpace=wrap;overflow=hidden;fontColor=#ffffff;" vertex="1" parent="1">
          <mxGeometry x="241" y="389" width="142" height="20" as="geometry" />
        </mxCell>
        <mxCell id="EQNxr8IgMrFvMYXsJS5_-4" value="&lt;font style=&quot;font-size: 14px;&quot;&gt;Customer&lt;/font&gt;" style="text;html=1;strokeColor=#2D7600;fillColor=#60a917;align=center;verticalAlign=middle;whiteSpace=wrap;overflow=hidden;fontColor=#ffffff;" vertex="1" parent="1">
          <mxGeometry x="609" y="284" width="142" height="20" as="geometry" />
        </mxCell>
        <mxCell id="EQNxr8IgMrFvMYXsJS5_-5" value="&lt;font style=&quot;font-size: 14px;&quot;&gt;Customer&lt;/font&gt;" style="text;html=1;strokeColor=#2D7600;fillColor=#60a917;align=center;verticalAlign=middle;whiteSpace=wrap;overflow=hidden;fontColor=#ffffff;" vertex="1" parent="1">
          <mxGeometry x="616" y="414" width="142" height="20" as="geometry" />
        </mxCell>
        <mxCell id="EQNxr8IgMrFvMYXsJS5_-6" value="&lt;font style=&quot;font-size: 14px;&quot;&gt;Sales&lt;/font&gt;" style="text;html=1;strokeColor=#9673a6;fillColor=#e1d5e7;align=center;verticalAlign=middle;whiteSpace=wrap;overflow=hidden;" vertex="1" parent="1">
          <mxGeometry x="33" y="328" width="142" height="20" as="geometry" />
        </mxCell>
      </root>
    </mxGraphModel>
  </diagram>
</mxfile>
